<svg width="35" height="35" viewBox="0 0 35 35" fill="none" xmlns="http://www.w3.org/2000/svg">
<path d="M32.3069 0.571289H3.15435C1.75788 0.571289 0.628662 1.67378 0.628662 3.03686V32.3096C0.628662 33.6726 1.75788 34.7819 3.15435 34.7819H32.3069C33.7032 34.7819 34.8392 33.6726 34.8392 32.3163V3.03686C34.8392 1.67378 33.7032 0.571289 32.3069 0.571289ZM10.7782 29.7239H5.70012V13.3936H10.7782V29.7239ZM8.23917 11.1685C6.60882 11.1685 5.29253 9.85225 5.29253 8.22858C5.29253 6.60491 6.60882 5.28859 8.23917 5.28859C9.86284 5.28859 11.1791 6.60491 11.1791 8.22858C11.1791 9.84556 9.86284 11.1685 8.23917 11.1685ZM29.7812 29.7239H24.7097V21.7858C24.7097 19.8949 24.6762 17.4561 22.0704 17.4561C19.4311 17.4561 19.0302 19.5207 19.0302 21.6522V29.7239H13.9654V13.3936H18.8297V15.6253H18.8966C19.5714 14.3424 21.2285 12.986 23.6941 12.986C28.8324 12.986 29.7812 16.3669 29.7812 20.7635V29.7239Z" fill="white"/>
</svg>
