<svg width="36" height="27" viewBox="0 0 36 27" fill="none" xmlns="http://www.w3.org/2000/svg">
<path d="M35.0653 6.35536C35.0653 6.35536 34.7192 3.8303 33.6541 2.72156C32.3051 1.26232 30.7969 1.25516 30.1053 1.16933C25.1524 0.797363 17.7159 0.797363 17.7159 0.797363H17.7021C17.7021 0.797363 10.2657 0.797363 5.31269 1.16933C4.62094 1.25516 3.1129 1.26232 1.76398 2.72156C0.698675 3.8303 0.359714 6.35536 0.359714 6.35536C0.359714 6.35536 0 9.32392 0 12.2853V15.0608C0 18.0222 0.352796 20.9907 0.352796 20.9907C0.352796 20.9907 0.698675 23.5159 1.75706 24.6245C3.106 26.0838 4.8769 26.0338 5.66549 26.1911C8.5017 26.47 17.709 26.556 17.709 26.556C17.709 26.556 25.1524 26.5416 30.1053 26.1767C30.7969 26.091 32.3051 26.0838 33.6541 24.6245C34.7192 23.5159 35.0653 20.9907 35.0653 20.9907C35.0653 20.9907 35.4181 18.0293 35.4181 15.0608V12.2853C35.4181 9.32392 35.0653 6.35536 35.0653 6.35536ZM14.0496 18.4299V8.13651L23.6166 13.3011L14.0496 18.4299Z" fill="white"/>
</svg>
