<svg width="211" height="30" viewBox="0 0 211 30" fill="none" xmlns="http://www.w3.org/2000/svg">
<mask id="mask0_2360_7" style="mask-type:luminance" maskUnits="userSpaceOnUse" x="0" y="0" width="211" height="30">
<path d="M211 0H0V29.632H211V0Z" fill="white"/>
</mask>
<g mask="url(#mask0_2360_7)">
<path fill-rule="evenodd" clip-rule="evenodd" d="M19.9298 11.6583C20.3588 12.4226 20.3588 13.3594 19.9298 14.1187H19.925L11.9637 28.176C11.5346 28.9352 10.74 29.4036 9.87706 29.4036H2.1498C1.282 29.4036 0.740851 28.447 1.17475 27.6829L14.1136 4.8393C14.5476 4.07505 15.6299 4.07505 16.0637 4.8393L19.9298 11.6583ZM24.7615 19.5424C24.3227 18.7781 23.2209 18.7781 22.7773 19.5424H22.7723L18.058 27.6877C17.6193 28.452 18.1701 29.4036 19.0526 29.4036H28.4813C29.3637 29.4036 29.9195 28.452 29.4759 27.6877L24.7615 19.5424Z" fill="#9E9E9E"/>
<path d="M56.1567 26.2099V29.4035H54.2753C52.0256 29.4035 51.1832 28.4188 51.1505 26.7477C50.0051 28.4437 48.2218 29.6021 45.5388 29.6021C41.8085 29.6021 39.2154 27.7323 39.2154 24.5057C39.2154 20.8987 41.7349 18.9296 46.5122 18.9296H50.7824V17.8788C50.7824 15.943 49.408 14.7516 47.0521 14.7516C44.9335 14.7516 43.5264 15.7693 43.2564 17.2997H39.6572C40.058 13.9326 42.8801 11.7898 47.2238 11.7898C51.5676 11.7898 54.3815 13.9987 54.3815 18.1105V25.0766C54.3815 25.9618 54.6843 26.2017 55.4532 26.2017H56.1567V26.2099ZM50.7824 21.6515H46.3485C44.1317 21.6515 42.8884 22.5035 42.8884 24.2658C42.8884 25.7302 44.099 26.7477 46.046 26.7477C49.0072 26.7477 50.7824 24.9441 50.7824 22.3298V21.6515Z" fill="#9E9E9E"/>
<path d="M64.058 29.4035L57.5382 11.9968H61.4403L66.3485 25.4571L71.2238 11.9968H75.0522L68.4997 29.4035H64.0661H64.058Z" fill="#9E9E9E"/>
<path d="M93.5906 26.2099V29.4035H91.7092C89.4595 29.4035 88.617 28.4188 88.5842 26.7477C87.439 28.4437 85.6557 29.6021 82.9726 29.6021C79.2423 29.6021 76.6492 27.7323 76.6492 24.5057C76.6492 20.8987 79.1688 18.9296 83.946 18.9296H88.2162V17.8788C88.2162 15.943 86.8418 14.7516 84.4859 14.7516C82.3672 14.7516 80.9603 15.7693 80.6902 17.2997H77.0911C77.4919 13.9326 80.314 11.7898 84.6577 11.7898C89.0014 11.7898 91.8154 13.9987 91.8154 18.1105V25.0766C91.8154 25.9618 92.1181 26.2017 92.8871 26.2017H93.5906V26.2099ZM88.2079 21.6515H83.7742C81.5574 21.6515 80.314 22.5035 80.314 24.2658C80.314 25.7302 81.5247 26.7477 83.4715 26.7477C86.4329 26.7477 88.2079 24.9441 88.2079 22.3298V21.6515Z" fill="#9E9E9E"/>
<path d="M110.211 26.1771V29.4035H96.2309V26.1771H101.425V9.06813L96.2309 10.8054V7.56231L100.673 5.84155H105.057V26.1853H110.219L110.211 26.1771Z" fill="#9E9E9E"/>
<path d="M129.575 26.2099V29.4035H127.694C125.444 29.4035 124.601 28.4188 124.569 26.7477C123.423 28.4437 121.64 29.6021 118.957 29.6021C115.227 29.6021 112.634 27.7323 112.634 24.5057C112.634 20.8987 115.153 18.9296 119.93 18.9296H124.201V17.8788C124.201 15.943 122.826 14.7516 120.47 14.7516C118.352 14.7516 116.945 15.7693 116.675 17.2997H113.076C113.476 13.9326 116.299 11.7898 120.642 11.7898C124.986 11.7898 127.8 13.9987 127.8 18.1105V25.0766C127.8 25.9618 128.103 26.2017 128.872 26.2017H129.575V26.2099ZM124.201 21.6515H119.767C117.55 21.6515 116.307 22.5035 116.307 24.2658C116.307 25.7302 117.517 26.7477 119.464 26.7477C122.425 26.7477 124.201 24.9441 124.201 22.3298V21.6515Z" fill="#9E9E9E"/>
<path d="M149.012 19.4756V29.4035H145.347V19.8149C145.347 16.7207 144.038 15.0247 141.445 15.0247C138.721 15.0247 137.077 17.0268 137.077 20.394V29.4035H133.445V11.9966H136.603L137.003 14.2719C138.042 12.9149 139.662 11.7898 142.279 11.7898C145.944 11.7898 149.004 13.792 149.004 19.4756H149.012Z" fill="#9E9E9E"/>
<path d="M153.47 20.7332C153.47 15.3639 156.865 11.7898 162.043 11.7898C166.444 11.7898 169.2 14.2719 169.872 18.2181H166.076C165.602 16.1746 164.161 14.9171 161.977 14.9171C159.09 14.9171 157.167 17.3328 157.167 20.7332C157.167 24.1334 159.081 26.4748 161.977 26.4748C164.129 26.4748 165.609 25.1842 166.043 23.1738H169.872C169.233 27.12 166.305 29.6021 161.936 29.6021C156.758 29.6021 153.462 26.1686 153.462 20.7332H153.47Z" fill="#9E9E9E"/>
<path d="M189.968 19.4759V29.4038H186.303V19.7821C186.303 16.7871 184.996 15.025 182.304 15.025C179.613 15.025 177.87 17.0684 177.87 20.3612V29.4038H174.238V5.61011H177.87V14.2142C179.048 12.7168 180.83 11.7985 183.147 11.7985C187.179 11.7985 189.968 14.2142 189.968 19.4841V19.4759Z" fill="#9E9E9E"/>
<path d="M198.059 21.5525V21.7262C198.157 24.6797 199.973 26.6238 202.795 26.6238C204.947 26.6238 206.591 25.4987 207.066 23.5628H210.697C210.091 26.9961 207.237 29.6104 203 29.6104C197.625 29.6104 194.264 26.0778 194.264 20.7417C194.264 15.4055 197.625 11.7983 202.631 11.7983C207.638 11.7983 210.902 14.9917 211 20.0963C211 20.4686 210.967 21.0477 210.902 21.5607H198.059V21.5525ZM198.191 18.7975H207.228C206.925 16.2162 205.176 14.7519 202.657 14.7519C200.407 14.7519 198.451 16.3154 198.181 18.7975H198.191Z" fill="#9E9E9E"/>
</g>
</svg>
