<?xml version="1.0" encoding="UTF-8"?>
<svg width="933px" height="250px" viewBox="0 0 933 250" version="1.1" xmlns="http://www.w3.org/2000/svg" xmlns:xlink="http://www.w3.org/1999/xlink">
    <title>Circles_02</title>
    <defs>
        <linearGradient x1="-0.37012996%" y1="50.0006899%" x2="100.37013%" y2="50.0006899%" id="linearGradient-1">
            <stop stop-color="#003A78" offset="2%"></stop>
            <stop stop-color="#003872" offset="6%"></stop>
            <stop stop-color="#003462" offset="12%"></stop>
            <stop stop-color="#002D47" offset="18%"></stop>
            <stop stop-color="#002423" offset="25%"></stop>
            <stop stop-color="#011C00" offset="30%"></stop>
            <stop stop-color="#171E06" offset="32%"></stop>
            <stop stop-color="#792923" offset="42%"></stop>
            <stop stop-color="#C13138" offset="49%"></stop>
            <stop stop-color="#ED3745" offset="55%"></stop>
            <stop stop-color="#FF394A" offset="58%"></stop>
            <stop stop-color="#841137" offset="76%"></stop>
            <stop stop-color="#4D002F" offset="84%"></stop>
            <stop stop-color="#5B0842" offset="87%"></stop>
            <stop stop-color="#79186C" offset="93%"></stop>
            <stop stop-color="#8C2385" offset="97%"></stop>
            <stop stop-color="#93278F" offset="100%"></stop>
        </linearGradient>
        <linearGradient x1="-0.370895326%" y1="50%" x2="100.366652%" y2="50%" id="linearGradient-2">
            <stop stop-color="#003A78" offset="2%"></stop>
            <stop stop-color="#003872" offset="6%"></stop>
            <stop stop-color="#003462" offset="12%"></stop>
            <stop stop-color="#002D47" offset="18%"></stop>
            <stop stop-color="#002423" offset="25%"></stop>
            <stop stop-color="#011C00" offset="30%"></stop>
            <stop stop-color="#171E06" offset="32%"></stop>
            <stop stop-color="#792923" offset="42%"></stop>
            <stop stop-color="#C13138" offset="49%"></stop>
            <stop stop-color="#ED3745" offset="55%"></stop>
            <stop stop-color="#FF394A" offset="58%"></stop>
            <stop stop-color="#841137" offset="76%"></stop>
            <stop stop-color="#4D002F" offset="84%"></stop>
            <stop stop-color="#5B0842" offset="87%"></stop>
            <stop stop-color="#79186C" offset="93%"></stop>
            <stop stop-color="#8C2385" offset="97%"></stop>
            <stop stop-color="#93278F" offset="100%"></stop>
        </linearGradient>
        <linearGradient x1="100.366102%" y1="50.0016949%" x2="-0.371186441%" y2="50.0016949%" id="linearGradient-3">
            <stop stop-color="#003A78" offset="2%"></stop>
            <stop stop-color="#003872" offset="6%"></stop>
            <stop stop-color="#003462" offset="12%"></stop>
            <stop stop-color="#002D47" offset="18%"></stop>
            <stop stop-color="#002423" offset="25%"></stop>
            <stop stop-color="#011C00" offset="30%"></stop>
            <stop stop-color="#171E06" offset="32%"></stop>
            <stop stop-color="#792923" offset="42%"></stop>
            <stop stop-color="#C13138" offset="49%"></stop>
            <stop stop-color="#ED3745" offset="55%"></stop>
            <stop stop-color="#FF394A" offset="58%"></stop>
            <stop stop-color="#841137" offset="76%"></stop>
            <stop stop-color="#4D002F" offset="84%"></stop>
            <stop stop-color="#5B0842" offset="87%"></stop>
            <stop stop-color="#79186C" offset="93%"></stop>
            <stop stop-color="#8C2385" offset="97%"></stop>
            <stop stop-color="#93278F" offset="100%"></stop>
        </linearGradient>
        <linearGradient x1="-0.366651672%" y1="50%" x2="100.370895%" y2="50%" id="linearGradient-4">
            <stop stop-color="#003A78" offset="2%"></stop>
            <stop stop-color="#003872" offset="6%"></stop>
            <stop stop-color="#003462" offset="12%"></stop>
            <stop stop-color="#002D47" offset="18%"></stop>
            <stop stop-color="#002423" offset="25%"></stop>
            <stop stop-color="#011C00" offset="30%"></stop>
            <stop stop-color="#171E06" offset="32%"></stop>
            <stop stop-color="#792923" offset="42%"></stop>
            <stop stop-color="#C13138" offset="49%"></stop>
            <stop stop-color="#ED3745" offset="55%"></stop>
            <stop stop-color="#FF394A" offset="58%"></stop>
            <stop stop-color="#841137" offset="76%"></stop>
            <stop stop-color="#4D002F" offset="84%"></stop>
            <stop stop-color="#5B0842" offset="87%"></stop>
            <stop stop-color="#79186C" offset="93%"></stop>
            <stop stop-color="#8C2385" offset="97%"></stop>
            <stop stop-color="#93278F" offset="100%"></stop>
        </linearGradient>
        <linearGradient x1="-0.365947612%" y1="50%" x2="100.365948%" y2="50%" id="linearGradient-5">
            <stop stop-color="#003A78" offset="2%"></stop>
            <stop stop-color="#003872" offset="6%"></stop>
            <stop stop-color="#003462" offset="12%"></stop>
            <stop stop-color="#002D47" offset="18%"></stop>
            <stop stop-color="#002423" offset="25%"></stop>
            <stop stop-color="#011C00" offset="30%"></stop>
            <stop stop-color="#171E06" offset="32%"></stop>
            <stop stop-color="#792923" offset="42%"></stop>
            <stop stop-color="#C13138" offset="49%"></stop>
            <stop stop-color="#ED3745" offset="55%"></stop>
            <stop stop-color="#FF394A" offset="58%"></stop>
            <stop stop-color="#841137" offset="76%"></stop>
            <stop stop-color="#4D002F" offset="84%"></stop>
            <stop stop-color="#5B0842" offset="87%"></stop>
            <stop stop-color="#79186C" offset="93%"></stop>
            <stop stop-color="#8C2385" offset="97%"></stop>
            <stop stop-color="#93278F" offset="100%"></stop>
        </linearGradient>
        <linearGradient x1="-0.360917762%" y1="50.0006439%" x2="100.373808%" y2="50.0006439%" id="linearGradient-6">
            <stop stop-color="#003A78" offset="2%"></stop>
            <stop stop-color="#003872" offset="6%"></stop>
            <stop stop-color="#003462" offset="12%"></stop>
            <stop stop-color="#002D47" offset="18%"></stop>
            <stop stop-color="#002423" offset="25%"></stop>
            <stop stop-color="#011C00" offset="30%"></stop>
            <stop stop-color="#171E06" offset="32%"></stop>
            <stop stop-color="#792923" offset="42%"></stop>
            <stop stop-color="#C13138" offset="49%"></stop>
            <stop stop-color="#ED3745" offset="55%"></stop>
            <stop stop-color="#FF394A" offset="58%"></stop>
            <stop stop-color="#841137" offset="76%"></stop>
            <stop stop-color="#4D002F" offset="84%"></stop>
            <stop stop-color="#5B0842" offset="87%"></stop>
            <stop stop-color="#79186C" offset="93%"></stop>
            <stop stop-color="#8C2385" offset="97%"></stop>
            <stop stop-color="#93278F" offset="100%"></stop>
        </linearGradient>
    </defs>
    <g id="Page-1" stroke="none" stroke-width="1" fill="none" fill-rule="evenodd" fill-opacity="0.7">
        <g id="Group" transform="translate(1.000000, 1.000000)" fill="#000000">
            <path d="M556.407,54.24 C556.407,74.257 540.202,90.479 520.204,90.479 C500.206,90.479 484,74.257 484,54.24 C484,34.222 500.217,18 520.204,18 C540.191,18 556.407,34.233 556.407,54.24 Z" id="Path" stroke="url(#linearGradient-1)" stroke-width="0.98"></path>
            <path d="M451.613,188.64 C451.613,221.215 425.244,247.61 392.701,247.61 C360.158,247.61 333.79,221.215 333.79,188.64 C333.79,156.065 360.175,129.67 392.701,129.67 C425.228,129.67 451.613,156.081 451.613,188.64 Z" id="Path" stroke="url(#linearGradient-2)" stroke-width="1.59"></path>
            <path d="M366.478,145.777 C366.478,167.201 349.136,184.555 327.739,184.555 C306.342,184.555 289,167.195 289,145.777 C289,124.36 306.353,107 327.739,107 C349.125,107 366.478,124.37 366.478,145.777 Z" id="Path" stroke="#FF394A" stroke-width="1.05" opacity="0.47"></path>
            <path d="M0,41.501 C0,25.205 13.204,12 29.5,12 C45.796,12 59,25.205 59,41.501 C59,57.798 45.785,71 29.5,71 C13.215,71 0,57.787 0,41.499 L0,41.501 Z" id="Path" stroke="url(#linearGradient-3)" stroke-width="1.59" opacity="0.71"></path>
            <path d="M636.823,187.97 C636.823,220.545 610.455,246.94 577.912,246.94 C545.369,246.94 519,220.545 519,187.97 C519,155.395 545.385,129 577.912,129 C610.438,129 636.823,155.411 636.823,187.97 Z" id="Path" stroke="url(#linearGradient-2)" stroke-width="1.59"></path>
            <path d="M799.882,81.694 C799.882,114.269 773.513,140.664 740.97,140.664 C708.427,140.664 682.059,114.269 682.059,81.694 C682.059,49.119 708.444,22.724 740.97,22.724 C773.497,22.724 799.882,49.135 799.882,81.694 Z" id="Path" stroke="url(#linearGradient-4)" stroke-width="1.59"></path>
            <path d="M861.92,58.96 C861.92,73.3 850.3,84.92 835.96,84.92 C821.62,84.92 810,73.3 810,58.96 C810,44.619 821.63,33 835.96,33 C850.29,33 861.92,44.628 861.92,58.96 Z" id="Path" stroke="url(#linearGradient-5)" stroke-width="1.26"></path>
            <path d="M289.116,60.94 C289.116,82.45 271.857,99.879 250.558,99.879 C229.258,99.879 212,82.45 212,60.94 C212,39.429 229.269,22 250.558,22 C271.847,22 289.116,39.44 289.116,60.94 Z" id="Path" stroke="#FF394A" stroke-width="1.59" opacity="0.56"></path>
            <path d="M706.461,42.272 C706.461,65.621 687.561,84.544 664.23,84.544 C640.9,84.544 622,65.626 622,42.272 C622,18.918 640.916,0 664.23,0 C687.545,0 706.461,18.935 706.461,42.272 Z" id="Path" stroke="#FF394A" stroke-width="1.14" opacity="0.47"></path>
            <path d="M930.58,174.827 C930.58,196.272 913.21,213.653 891.79,213.653 C870.36,213.653 853,196.272 853,174.827 C853,153.381 870.38,136 891.79,136 C913.2,136 930.58,153.392 930.58,174.827 Z" id="Path" stroke="url(#linearGradient-6)" stroke-width="1.05"></path>
        </g>
    </g>
</svg>