<svg width="1100" height="443" viewBox="0 0 1100 443" fill="none" xmlns="http://www.w3.org/2000/svg">
<mask id="mask0_2352_5" style="mask-type:alpha" maskUnits="userSpaceOnUse" x="0" y="0" width="1101" height="443">
<rect width="1101" height="443" fill="black" fill-opacity="0.7"/>
</mask>
<g mask="url(#mask0_2352_5)">
<path fill-rule="evenodd" clip-rule="evenodd" d="M946.243 372.973C946.243 400.27 924.147 422.388 896.877 422.388C869.606 422.388 847.51 400.27 847.51 372.973C847.51 345.675 869.623 323.558 896.877 323.558C924.131 323.558 946.243 345.692 946.243 372.973Z" fill="black" fill-opacity="0.7" stroke="url(#paint0_linear_2352_5)" stroke-width="1.34" stroke-miterlimit="10"/>
<path fill-rule="evenodd" clip-rule="evenodd" d="M770.267 294.924C770.267 314.941 754.061 331.163 734.064 331.163C714.066 331.163 697.86 314.941 697.86 294.924C697.86 274.906 714.077 258.684 734.064 258.684C754.05 258.684 770.267 274.917 770.267 294.924Z" fill="black" fill-opacity="0.7" stroke="url(#paint1_linear_2352_5)" stroke-width="0.98" stroke-miterlimit="10"/>
<path opacity="0.47" fill-rule="evenodd" clip-rule="evenodd" d="M643.921 215.43C643.921 240.525 623.587 260.859 598.491 260.859C573.396 260.859 553.062 240.525 553.062 215.43C553.062 190.334 573.413 170 598.491 170C623.57 170 643.921 190.347 643.921 215.43Z" fill="black" fill-opacity="0.7" stroke="#FF394A" stroke-width="1.59" stroke-miterlimit="10"/>
<path fill-rule="evenodd" clip-rule="evenodd" d="M358.66 266.378C358.66 289.153 340.205 307.608 317.429 307.608C294.654 307.608 276.199 289.153 276.199 266.378C276.199 243.602 294.665 225.147 317.429 225.147C340.194 225.147 358.66 243.613 358.66 266.378Z" fill="black" fill-opacity="0.7" stroke="url(#paint2_linear_2352_5)" stroke-width="1.59" stroke-miterlimit="10"/>
<path fill-rule="evenodd" clip-rule="evenodd" d="M643.613 310.64C643.613 343.215 617.244 369.61 584.701 369.61C552.158 369.61 525.79 343.215 525.79 310.64C525.79 278.065 552.175 251.67 584.701 251.67C617.228 251.67 643.613 278.081 643.613 310.64Z" fill="black" fill-opacity="0.7" stroke="url(#paint3_linear_2352_5)" stroke-width="1.59" stroke-miterlimit="10"/>
<path opacity="0.47" fill-rule="evenodd" clip-rule="evenodd" d="M556.478 272.15C556.478 293.573 539.136 310.927 517.739 310.927C496.342 310.927 479 293.567 479 272.15C479 250.732 496.353 233.372 517.739 233.372C539.125 233.372 556.478 250.743 556.478 272.15Z" fill="black" fill-opacity="0.7" stroke="#FF394A" stroke-width="1.05" stroke-miterlimit="10"/>
<path fill-rule="evenodd" clip-rule="evenodd" d="M480.458 75.002C480.458 100.828 459.554 121.754 433.753 121.754C407.953 121.754 387.048 100.828 387.048 75.002C387.048 49.1759 407.969 28.2504 433.753 28.2504C459.537 28.2504 480.458 49.1923 480.458 75.002Z" fill="black" fill-opacity="0.7" stroke="url(#paint4_linear_2352_5)" stroke-width="1.26" stroke-miterlimit="10"/>
<path fill-rule="evenodd" clip-rule="evenodd" d="M529.063 58.7171C529.063 75.5879 515.393 89.258 498.522 89.258C481.651 89.258 467.981 75.5879 467.981 58.7171C467.981 41.8462 481.66 28.1761 498.522 28.1761C515.385 28.1761 529.063 41.8547 529.063 58.7171Z" fill="black" fill-opacity="0.7" stroke="url(#paint5_linear_2352_5)" stroke-width="1.59" stroke-miterlimit="10"/>
<path opacity="0.56" fill-rule="evenodd" clip-rule="evenodd" d="M192.805 321.134C192.805 353.709 166.436 380.104 133.894 380.104C101.351 380.104 74.9819 353.709 74.9819 321.134C74.9819 288.559 101.367 262.164 133.894 262.164C166.42 262.164 192.805 288.575 192.805 321.134Z" fill="black" fill-opacity="0.7" stroke="url(#paint6_linear_2352_5)" stroke-width="1.59" stroke-miterlimit="10"/>
<path opacity="0.25" fill-rule="evenodd" clip-rule="evenodd" d="M228.507 245.958C228.507 272.134 207.318 293.344 181.168 293.344C155.017 293.344 133.828 272.134 133.828 245.958C133.828 219.781 155.034 198.572 181.168 198.572C207.301 198.572 228.507 219.798 228.507 245.958Z" fill="black" fill-opacity="0.7" stroke="#FF394A" stroke-width="1.28" stroke-miterlimit="10"/>
<path opacity="0.47" fill-rule="evenodd" clip-rule="evenodd" d="M368.491 339.87C368.491 363.218 349.592 382.142 326.261 382.142C302.93 382.142 284.031 363.224 284.031 339.87C284.031 316.516 302.947 297.598 326.261 297.598C349.575 297.598 368.491 316.533 368.491 339.87Z" fill="black" fill-opacity="0.7" stroke="#FF394A" stroke-width="1.14" stroke-miterlimit="10"/>
<path opacity="0.71" fill-rule="evenodd" clip-rule="evenodd" d="M152 98.5014C152 82.2047 165.204 69 181.5 69C197.796 69 211 82.2048 211 98.5014C211 114.798 197.785 128 181.5 128C165.215 128 152 114.787 152 98.4986L152 98.5014Z" fill="black" fill-opacity="0.7" stroke="url(#paint7_linear_2352_5)" stroke-width="1.59" stroke-miterlimit="10"/>
<path fill-rule="evenodd" clip-rule="evenodd" d="M419.576 38.8266C419.576 60.2717 402.212 77.6531 380.788 77.6531C359.364 77.6531 342 60.2717 342 38.8266C342 17.3814 359.375 0 380.788 0C402.201 0 419.576 17.3924 419.576 38.8266Z" fill="black" fill-opacity="0.7" stroke="url(#paint8_linear_2352_5)" stroke-width="1.05" stroke-miterlimit="10"/>
<path fill-rule="evenodd" clip-rule="evenodd" d="M1181.04 287.966C1181.04 320.541 1154.67 346.936 1122.13 346.936C1089.58 346.936 1063.22 320.541 1063.22 287.966C1063.22 255.391 1089.6 228.996 1122.13 228.996C1154.65 228.996 1181.04 255.407 1181.04 287.966Z" fill="black" fill-opacity="0.7" stroke="url(#paint9_linear_2352_5)" stroke-width="1.59" stroke-miterlimit="10"/>
<path fill-rule="evenodd" clip-rule="evenodd" d="M991.882 203.694C991.882 236.269 965.513 262.664 932.97 262.664C900.427 262.664 874.059 236.269 874.059 203.694C874.059 171.119 900.444 144.724 932.97 144.724C965.497 144.724 991.882 171.135 991.882 203.694Z" fill="black" fill-opacity="0.7" stroke="url(#paint10_linear_2352_5)" stroke-width="1.59" stroke-miterlimit="10"/>
<path fill-rule="evenodd" clip-rule="evenodd" d="M1082.68 151.765C1082.68 166.105 1071.06 177.725 1056.72 177.725C1042.38 177.725 1030.76 166.105 1030.76 151.765C1030.76 137.424 1042.38 125.805 1056.72 125.805C1071.05 125.805 1082.68 137.434 1082.68 151.765Z" fill="black" fill-opacity="0.7" stroke="url(#paint11_linear_2352_5)" stroke-width="1.26" stroke-miterlimit="10"/>
<path opacity="0.56" fill-rule="evenodd" clip-rule="evenodd" d="M868.126 79.2302C868.126 100.741 850.867 118.17 829.568 118.17C808.268 118.17 791.01 100.741 791.01 79.2302C791.01 57.7198 808.279 40.2905 829.568 40.2905C850.856 40.2905 868.126 57.7307 868.126 79.2302Z" fill="black" fill-opacity="0.7" stroke="#FF394A" stroke-width="1.59" stroke-miterlimit="10"/>
<path opacity="0.58" fill-rule="evenodd" clip-rule="evenodd" d="M454.074 305.615C454.074 321.853 441.087 335.01 425.06 335.01C409.032 335.01 396.046 321.853 396.046 305.615C396.046 289.377 409.04 276.219 425.06 276.219C441.079 276.219 454.074 289.385 454.074 305.615Z" fill="black" fill-opacity="0.7" stroke="#FF394A" stroke-width="1.59" stroke-miterlimit="10"/>
<path opacity="0.25" fill-rule="evenodd" clip-rule="evenodd" d="M842.167 286.193C842.167 312.369 820.978 333.579 794.828 333.579C768.678 333.579 747.489 312.369 747.489 286.193C747.489 260.016 768.694 238.807 794.828 238.807C820.962 238.807 842.167 260.033 842.167 286.193Z" fill="black" fill-opacity="0.7" stroke="#FF394A" stroke-width="1.28" stroke-miterlimit="10"/>
<path opacity="0.47" fill-rule="evenodd" clip-rule="evenodd" d="M1042.43 264.957C1042.43 288.305 1023.53 307.229 1000.2 307.229C976.868 307.229 957.969 288.311 957.969 264.957C957.969 241.603 976.885 222.685 1000.2 222.685C1023.51 222.685 1042.43 241.619 1042.43 264.957Z" fill="black" fill-opacity="0.7" stroke="#FF394A" stroke-width="1.14" stroke-miterlimit="10"/>
<path fill-rule="evenodd" clip-rule="evenodd" d="M834.227 121.874C834.227 143.32 816.863 160.701 795.439 160.701C774.015 160.701 756.651 143.32 756.651 121.874C756.651 100.429 774.026 83.0479 795.439 83.0479C816.852 83.0479 834.227 100.44 834.227 121.874Z" fill="black" fill-opacity="0.7" stroke="url(#paint12_linear_2352_5)" stroke-width="1.05" stroke-miterlimit="10"/>
</g>
<defs>
<linearGradient id="paint0_linear_2352_5" x1="847.144" y1="372.973" x2="946.609" y2="372.973" gradientUnits="userSpaceOnUse">
<stop offset="0.02" stop-color="#003A78"/>
<stop offset="0.06" stop-color="#003872"/>
<stop offset="0.12" stop-color="#003462"/>
<stop offset="0.18" stop-color="#002D47"/>
<stop offset="0.25" stop-color="#002423"/>
<stop offset="0.3" stop-color="#011C00"/>
<stop offset="0.32" stop-color="#171E06"/>
<stop offset="0.42" stop-color="#792923"/>
<stop offset="0.49" stop-color="#C13138"/>
<stop offset="0.55" stop-color="#ED3745"/>
<stop offset="0.58" stop-color="#FF394A"/>
<stop offset="0.76" stop-color="#841137"/>
<stop offset="0.84" stop-color="#4D002F"/>
<stop offset="0.87" stop-color="#5B0842"/>
<stop offset="0.93" stop-color="#79186C"/>
<stop offset="0.97" stop-color="#8C2385"/>
<stop offset="1" stop-color="#93278F"/>
</linearGradient>
<linearGradient id="paint1_linear_2352_5" x1="697.592" y1="294.924" x2="770.535" y2="294.924" gradientUnits="userSpaceOnUse">
<stop offset="0.02" stop-color="#003A78"/>
<stop offset="0.06" stop-color="#003872"/>
<stop offset="0.12" stop-color="#003462"/>
<stop offset="0.18" stop-color="#002D47"/>
<stop offset="0.25" stop-color="#002423"/>
<stop offset="0.3" stop-color="#011C00"/>
<stop offset="0.32" stop-color="#171E06"/>
<stop offset="0.42" stop-color="#792923"/>
<stop offset="0.49" stop-color="#C13138"/>
<stop offset="0.55" stop-color="#ED3745"/>
<stop offset="0.58" stop-color="#FF394A"/>
<stop offset="0.76" stop-color="#841137"/>
<stop offset="0.84" stop-color="#4D002F"/>
<stop offset="0.87" stop-color="#5B0842"/>
<stop offset="0.93" stop-color="#79186C"/>
<stop offset="0.97" stop-color="#8C2385"/>
<stop offset="1" stop-color="#93278F"/>
</linearGradient>
<linearGradient id="paint2_linear_2352_5" x1="275.897" y1="266.378" x2="358.965" y2="266.378" gradientUnits="userSpaceOnUse">
<stop offset="0.02" stop-color="#003A78"/>
<stop offset="0.06" stop-color="#003872"/>
<stop offset="0.12" stop-color="#003462"/>
<stop offset="0.18" stop-color="#002D47"/>
<stop offset="0.25" stop-color="#002423"/>
<stop offset="0.3" stop-color="#011C00"/>
<stop offset="0.32" stop-color="#171E06"/>
<stop offset="0.42" stop-color="#792923"/>
<stop offset="0.49" stop-color="#C13138"/>
<stop offset="0.55" stop-color="#ED3745"/>
<stop offset="0.58" stop-color="#FF394A"/>
<stop offset="0.76" stop-color="#841137"/>
<stop offset="0.84" stop-color="#4D002F"/>
<stop offset="0.87" stop-color="#5B0842"/>
<stop offset="0.93" stop-color="#79186C"/>
<stop offset="0.97" stop-color="#8C2385"/>
<stop offset="1" stop-color="#93278F"/>
</linearGradient>
<linearGradient id="paint3_linear_2352_5" x1="525.353" y1="310.64" x2="644.045" y2="310.64" gradientUnits="userSpaceOnUse">
<stop offset="0.02" stop-color="#003A78"/>
<stop offset="0.06" stop-color="#003872"/>
<stop offset="0.12" stop-color="#003462"/>
<stop offset="0.18" stop-color="#002D47"/>
<stop offset="0.25" stop-color="#002423"/>
<stop offset="0.3" stop-color="#011C00"/>
<stop offset="0.32" stop-color="#171E06"/>
<stop offset="0.42" stop-color="#792923"/>
<stop offset="0.49" stop-color="#C13138"/>
<stop offset="0.55" stop-color="#ED3745"/>
<stop offset="0.58" stop-color="#FF394A"/>
<stop offset="0.76" stop-color="#841137"/>
<stop offset="0.84" stop-color="#4D002F"/>
<stop offset="0.87" stop-color="#5B0842"/>
<stop offset="0.93" stop-color="#79186C"/>
<stop offset="0.97" stop-color="#8C2385"/>
<stop offset="1" stop-color="#93278F"/>
</linearGradient>
<linearGradient id="paint4_linear_2352_5" x1="386.698" y1="75.002" x2="480.803" y2="75.002" gradientUnits="userSpaceOnUse">
<stop offset="0.02" stop-color="#003A78"/>
<stop offset="0.06" stop-color="#003872"/>
<stop offset="0.12" stop-color="#003462"/>
<stop offset="0.18" stop-color="#002D47"/>
<stop offset="0.25" stop-color="#002423"/>
<stop offset="0.3" stop-color="#011C00"/>
<stop offset="0.32" stop-color="#171E06"/>
<stop offset="0.42" stop-color="#792923"/>
<stop offset="0.49" stop-color="#C13138"/>
<stop offset="0.55" stop-color="#ED3745"/>
<stop offset="0.58" stop-color="#FF394A"/>
<stop offset="0.76" stop-color="#841137"/>
<stop offset="0.84" stop-color="#4D002F"/>
<stop offset="0.87" stop-color="#5B0842"/>
<stop offset="0.93" stop-color="#79186C"/>
<stop offset="0.97" stop-color="#8C2385"/>
<stop offset="1" stop-color="#93278F"/>
</linearGradient>
<linearGradient id="paint5_linear_2352_5" x1="467.757" y1="58.7171" x2="529.29" y2="58.7171" gradientUnits="userSpaceOnUse">
<stop offset="0.02" stop-color="#003A78"/>
<stop offset="0.06" stop-color="#003872"/>
<stop offset="0.12" stop-color="#003462"/>
<stop offset="0.18" stop-color="#002D47"/>
<stop offset="0.25" stop-color="#002423"/>
<stop offset="0.3" stop-color="#011C00"/>
<stop offset="0.32" stop-color="#171E06"/>
<stop offset="0.42" stop-color="#792923"/>
<stop offset="0.49" stop-color="#C13138"/>
<stop offset="0.55" stop-color="#ED3745"/>
<stop offset="0.58" stop-color="#FF394A"/>
<stop offset="0.76" stop-color="#841137"/>
<stop offset="0.84" stop-color="#4D002F"/>
<stop offset="0.87" stop-color="#5B0842"/>
<stop offset="0.93" stop-color="#79186C"/>
<stop offset="0.97" stop-color="#8C2385"/>
<stop offset="1" stop-color="#93278F"/>
</linearGradient>
<linearGradient id="paint6_linear_2352_5" x1="74.5503" y1="321.134" x2="193.242" y2="321.134" gradientUnits="userSpaceOnUse">
<stop offset="0.02" stop-color="#003A78"/>
<stop offset="0.06" stop-color="#003872"/>
<stop offset="0.12" stop-color="#003462"/>
<stop offset="0.18" stop-color="#002D47"/>
<stop offset="0.25" stop-color="#002423"/>
<stop offset="0.3" stop-color="#011C00"/>
<stop offset="0.32" stop-color="#171E06"/>
<stop offset="0.42" stop-color="#792923"/>
<stop offset="0.49" stop-color="#C13138"/>
<stop offset="0.55" stop-color="#ED3745"/>
<stop offset="0.58" stop-color="#FF394A"/>
<stop offset="0.76" stop-color="#841137"/>
<stop offset="0.84" stop-color="#4D002F"/>
<stop offset="0.87" stop-color="#5B0842"/>
<stop offset="0.93" stop-color="#79186C"/>
<stop offset="0.97" stop-color="#8C2385"/>
<stop offset="1" stop-color="#93278F"/>
</linearGradient>
<linearGradient id="paint7_linear_2352_5" x1="211.216" y1="98.5014" x2="151.781" y2="98.5014" gradientUnits="userSpaceOnUse">
<stop offset="0.02" stop-color="#003A78"/>
<stop offset="0.06" stop-color="#003872"/>
<stop offset="0.12" stop-color="#003462"/>
<stop offset="0.18" stop-color="#002D47"/>
<stop offset="0.25" stop-color="#002423"/>
<stop offset="0.3" stop-color="#011C00"/>
<stop offset="0.32" stop-color="#171E06"/>
<stop offset="0.42" stop-color="#792923"/>
<stop offset="0.49" stop-color="#C13138"/>
<stop offset="0.55" stop-color="#ED3745"/>
<stop offset="0.58" stop-color="#FF394A"/>
<stop offset="0.76" stop-color="#841137"/>
<stop offset="0.84" stop-color="#4D002F"/>
<stop offset="0.87" stop-color="#5B0842"/>
<stop offset="0.93" stop-color="#79186C"/>
<stop offset="0.97" stop-color="#8C2385"/>
<stop offset="1" stop-color="#93278F"/>
</linearGradient>
<linearGradient id="paint8_linear_2352_5" x1="341.716" y1="38.8266" x2="419.866" y2="38.8266" gradientUnits="userSpaceOnUse">
<stop offset="0.02" stop-color="#003A78"/>
<stop offset="0.06" stop-color="#003872"/>
<stop offset="0.12" stop-color="#003462"/>
<stop offset="0.18" stop-color="#002D47"/>
<stop offset="0.25" stop-color="#002423"/>
<stop offset="0.3" stop-color="#011C00"/>
<stop offset="0.32" stop-color="#171E06"/>
<stop offset="0.42" stop-color="#792923"/>
<stop offset="0.49" stop-color="#C13138"/>
<stop offset="0.55" stop-color="#ED3745"/>
<stop offset="0.58" stop-color="#FF394A"/>
<stop offset="0.76" stop-color="#841137"/>
<stop offset="0.84" stop-color="#4D002F"/>
<stop offset="0.87" stop-color="#5B0842"/>
<stop offset="0.93" stop-color="#79186C"/>
<stop offset="0.97" stop-color="#8C2385"/>
<stop offset="1" stop-color="#93278F"/>
</linearGradient>
<linearGradient id="paint9_linear_2352_5" x1="1062.78" y1="287.966" x2="1181.47" y2="287.966" gradientUnits="userSpaceOnUse">
<stop offset="0.02" stop-color="#003A78"/>
<stop offset="0.06" stop-color="#003872"/>
<stop offset="0.12" stop-color="#003462"/>
<stop offset="0.18" stop-color="#002D47"/>
<stop offset="0.25" stop-color="#002423"/>
<stop offset="0.3" stop-color="#011C00"/>
<stop offset="0.32" stop-color="#171E06"/>
<stop offset="0.42" stop-color="#792923"/>
<stop offset="0.49" stop-color="#C13138"/>
<stop offset="0.55" stop-color="#ED3745"/>
<stop offset="0.58" stop-color="#FF394A"/>
<stop offset="0.76" stop-color="#841137"/>
<stop offset="0.84" stop-color="#4D002F"/>
<stop offset="0.87" stop-color="#5B0842"/>
<stop offset="0.93" stop-color="#79186C"/>
<stop offset="0.97" stop-color="#8C2385"/>
<stop offset="1" stop-color="#93278F"/>
</linearGradient>
<linearGradient id="paint10_linear_2352_5" x1="873.627" y1="203.694" x2="992.319" y2="203.694" gradientUnits="userSpaceOnUse">
<stop offset="0.02" stop-color="#003A78"/>
<stop offset="0.06" stop-color="#003872"/>
<stop offset="0.12" stop-color="#003462"/>
<stop offset="0.18" stop-color="#002D47"/>
<stop offset="0.25" stop-color="#002423"/>
<stop offset="0.3" stop-color="#011C00"/>
<stop offset="0.32" stop-color="#171E06"/>
<stop offset="0.42" stop-color="#792923"/>
<stop offset="0.49" stop-color="#C13138"/>
<stop offset="0.55" stop-color="#ED3745"/>
<stop offset="0.58" stop-color="#FF394A"/>
<stop offset="0.76" stop-color="#841137"/>
<stop offset="0.84" stop-color="#4D002F"/>
<stop offset="0.87" stop-color="#5B0842"/>
<stop offset="0.93" stop-color="#79186C"/>
<stop offset="0.97" stop-color="#8C2385"/>
<stop offset="1" stop-color="#93278F"/>
</linearGradient>
<linearGradient id="paint11_linear_2352_5" x1="1030.56" y1="151.765" x2="1082.87" y2="151.765" gradientUnits="userSpaceOnUse">
<stop offset="0.02" stop-color="#003A78"/>
<stop offset="0.06" stop-color="#003872"/>
<stop offset="0.12" stop-color="#003462"/>
<stop offset="0.18" stop-color="#002D47"/>
<stop offset="0.25" stop-color="#002423"/>
<stop offset="0.3" stop-color="#011C00"/>
<stop offset="0.32" stop-color="#171E06"/>
<stop offset="0.42" stop-color="#792923"/>
<stop offset="0.49" stop-color="#C13138"/>
<stop offset="0.55" stop-color="#ED3745"/>
<stop offset="0.58" stop-color="#FF394A"/>
<stop offset="0.76" stop-color="#841137"/>
<stop offset="0.84" stop-color="#4D002F"/>
<stop offset="0.87" stop-color="#5B0842"/>
<stop offset="0.93" stop-color="#79186C"/>
<stop offset="0.97" stop-color="#8C2385"/>
<stop offset="1" stop-color="#93278F"/>
</linearGradient>
<linearGradient id="paint12_linear_2352_5" x1="756.367" y1="121.874" x2="834.517" y2="121.874" gradientUnits="userSpaceOnUse">
<stop offset="0.02" stop-color="#003A78"/>
<stop offset="0.06" stop-color="#003872"/>
<stop offset="0.12" stop-color="#003462"/>
<stop offset="0.18" stop-color="#002D47"/>
<stop offset="0.25" stop-color="#002423"/>
<stop offset="0.3" stop-color="#011C00"/>
<stop offset="0.32" stop-color="#171E06"/>
<stop offset="0.42" stop-color="#792923"/>
<stop offset="0.49" stop-color="#C13138"/>
<stop offset="0.55" stop-color="#ED3745"/>
<stop offset="0.58" stop-color="#FF394A"/>
<stop offset="0.76" stop-color="#841137"/>
<stop offset="0.84" stop-color="#4D002F"/>
<stop offset="0.87" stop-color="#5B0842"/>
<stop offset="0.93" stop-color="#79186C"/>
<stop offset="0.97" stop-color="#8C2385"/>
<stop offset="1" stop-color="#93278F"/>
</linearGradient>
</defs>
</svg>
