<svg width="141" height="28" viewBox="0 0 141 28" fill="none" xmlns="http://www.w3.org/2000/svg">
<path d="M31.4153 23.9771H37.1437V27.6817H21.439V23.9771H27.2075V4.10454L21.439 6.09409V2.38942L26.43 0.399887H31.421V23.9771H31.4153Z" fill="#FF394A"/>
<path d="M140.886 18.6776H125.998V18.872C126.113 22.2622 128.217 24.4861 131.493 24.4861C133.985 24.4861 135.895 23.1998 136.443 20.9816H140.651C139.954 24.9149 136.638 27.9163 131.727 27.9163C125.49 27.9163 121.596 23.863 121.596 17.7457C121.596 11.6284 125.495 7.495 131.298 7.495C137.101 7.495 140.886 11.1596 141 17.0025C141 17.4312 140.96 18.0944 140.886 18.6776ZM131.338 10.8852C128.725 10.8852 126.467 12.6804 126.153 15.5218H136.638C136.289 12.5603 134.26 10.8852 131.338 10.8852Z" fill="#FF394A"/>
<path d="M19.2894 18.6776H4.40215V18.872C4.51649 22.2622 6.62036 24.4861 9.89624 24.4861C12.3889 24.4861 14.2984 23.1998 14.8472 20.9816H19.055C18.3575 24.9149 15.0416 27.9163 10.1306 27.9163C3.89332 27.9163 0 23.863 0 17.7457C0 11.6284 3.89904 7.495 9.70186 7.495C15.5047 7.495 19.2894 11.1596 19.4037 17.0025C19.4037 17.4312 19.3637 18.0944 19.2894 18.6776ZM9.74189 10.8852C7.12919 10.8852 4.87094 12.6804 4.5565 15.5218H15.0416C14.6929 12.5603 12.6633 10.8852 9.74189 10.8852Z" fill="#FF394A"/>
<path d="M58.7486 18.6776H43.8613V18.872C43.9757 22.2622 46.0796 24.4861 49.3555 24.4861C51.8481 24.4861 53.7576 23.1998 54.3064 20.9815H58.5142C57.8167 24.9149 54.5008 27.9163 49.5899 27.9163C43.3525 27.9163 39.4592 23.8629 39.4592 17.7457C39.4592 11.6284 43.3583 7.495 49.1611 7.495C54.9639 7.495 58.7486 11.1596 58.863 17.0025C58.863 17.4312 58.8229 18.0944 58.7486 18.6776ZM49.2011 10.8852C46.5884 10.8852 44.3302 12.6804 44.0157 15.5218H54.5008C54.1521 12.5603 52.1225 10.8852 49.2011 10.8852Z" fill="#FF394A"/>
<path d="M101.781 24.0173H102.598V27.6819H100.414C97.8018 27.6819 96.8299 26.55 96.7899 24.6405C95.4635 26.59 93.3996 27.9163 90.2838 27.9163C85.956 27.9163 82.9603 25.7724 82.9603 22.0735C82.9603 17.9401 85.8817 15.6818 91.4158 15.6818H96.3668V14.4755C96.3668 12.2516 94.766 10.8909 92.039 10.8909C89.5806 10.8909 87.9455 12.0572 87.6311 13.8123H83.4634C83.9322 9.95333 87.2023 7.5007 92.2334 7.5007C97.2644 7.5007 100.535 10.0334 100.535 14.7499V22.7367C100.535 23.7486 100.883 24.023 101.781 24.023V24.0173ZM96.3668 19.5751V18.7976H91.2214C88.6488 18.7976 87.208 19.7695 87.208 21.7991C87.208 23.4742 88.6087 24.6462 90.8727 24.6462C94.3029 24.6462 96.3668 22.5823 96.3668 19.5809V19.5751Z" fill="#FF394A"/>
<path d="M73.4642 27.6817H68.3189L60.7609 7.72916H65.2831L70.9716 23.1595L76.62 7.72916H81.0622L73.4642 27.6817Z" fill="#FF394A"/>
<path d="M113.552 27.6819C109.745 27.6819 108.115 25.8924 108.115 22.285V11.4854H103.142V7.79791H108.115V2.24092H112.352V7.79791H119.109V11.4854H112.352V21.8562C112.352 23.4112 112.895 23.9944 114.49 23.9944H119.304V27.6819H113.552Z" fill="#FF394A"/>
</svg>
