<svg width="36" height="32" viewBox="0 0 36 32" fill="none" xmlns="http://www.w3.org/2000/svg">
<path d="M35.0499 15.9492C35.0499 13.8582 33.3665 12.1612 31.2922 12.1612C30.27 12.1612 29.3682 12.5551 28.7067 13.2218C26.1516 11.3732 22.6042 10.161 18.6962 10.0095L20.4097 1.91819L25.9712 3.10007C26.0313 4.52438 27.2037 5.67596 28.6467 5.67596C30.1197 5.67596 31.3221 4.46377 31.3221 2.97886C31.3221 1.49393 30.1197 0.281738 28.6467 0.281738C27.5946 0.281738 26.6928 0.88783 26.2718 1.79697L20.049 0.463568C19.8686 0.433263 19.6882 0.463566 19.5379 0.554481C19.3876 0.645395 19.2974 0.796919 19.2373 0.978746L17.3434 10.0095C13.3451 10.1307 9.76776 11.3126 7.18244 13.2218C6.52108 12.5854 5.58915 12.1612 4.5971 12.1612C2.52283 12.1612 0.839355 13.8582 0.839355 15.9492C0.839355 17.4948 1.74122 18.7979 3.06394 19.4039C3.00382 19.7676 2.97376 20.1616 2.97376 20.5555C2.97376 26.3741 9.67758 31.0712 17.9747 31.0712C26.2718 31.0712 32.9757 26.3741 32.9757 20.5555C32.9757 20.1616 32.9455 19.7979 32.8854 19.4343C34.118 18.8282 35.0499 17.4948 35.0499 15.9492ZM9.3469 18.6463C9.3469 17.1614 10.5494 15.9492 12.0224 15.9492C13.4954 15.9492 14.6979 17.1614 14.6979 18.6463C14.6979 20.1313 13.4954 21.3434 12.0224 21.3434C10.5494 21.3434 9.3469 20.1313 9.3469 18.6463ZM24.2877 25.7679C22.4539 27.6165 18.9667 27.7378 17.9446 27.7378C16.9225 27.7378 13.4053 27.5862 11.6016 25.7679C11.331 25.4952 11.331 25.0405 11.6016 24.7678C11.8721 24.4951 12.323 24.4951 12.5936 24.7678C13.736 25.9194 16.201 26.3437 17.9747 26.3437C19.7484 26.3437 22.1834 25.9194 23.3558 24.7678C23.6265 24.4951 24.0774 24.4951 24.3478 24.7678C24.5582 25.0709 24.5582 25.4952 24.2877 25.7679ZM23.8067 21.3434C22.3337 21.3434 21.1312 20.1313 21.1312 18.6463C21.1312 17.1614 22.3337 15.9492 23.8067 15.9492C25.2798 15.9492 26.4822 17.1614 26.4822 18.6463C26.4822 20.1313 25.2798 21.3434 23.8067 21.3434Z" fill="white"/>
</svg>
