<svg width="24" height="24" viewBox="0 0 24 24" fill="none" xmlns="http://www.w3.org/2000/svg">
<path d="M12.83 2.17999C12.5694 2.06114 12.2864 1.99963 12 1.99963C11.7136 1.99963 11.4305 2.06114 11.17 2.17999L2.59996 6.07999C2.42251 6.15823 2.27164 6.28639 2.16573 6.44885C2.05981 6.61131 2.00342 6.80106 2.00342 6.99499C2.00342 7.18893 2.05981 7.37868 2.16573 7.54113C2.27164 7.70359 2.42251 7.83175 2.59996 7.90999L11.18 11.82C11.4405 11.9388 11.7236 12.0003 12.01 12.0003C12.2964 12.0003 12.5794 11.9388 12.84 11.82L21.42 7.91999C21.5974 7.84175 21.7483 7.71359 21.8542 7.55113C21.9601 7.38868 22.0165 7.19893 22.0165 7.00499C22.0165 6.81106 21.9601 6.6213 21.8542 6.45885C21.7483 6.29639 21.5974 6.16823 21.42 6.08999L12.83 2.17999Z" stroke="#FF394A" stroke-width="2" stroke-linecap="round" stroke-linejoin="round"/>
<path d="M22 17.65L12.83 21.81C12.5694 21.9288 12.2864 21.9904 12 21.9904C11.7136 21.9904 11.4306 21.9288 11.17 21.81L2 17.65" stroke="#FF394A" stroke-width="2" stroke-linecap="round" stroke-linejoin="round"/>
<path d="M22 12.65L12.83 16.81C12.5694 16.9288 12.2864 16.9904 12 16.9904C11.7136 16.9904 11.4306 16.9288 11.17 16.81L2 12.65" stroke="#FF394A" stroke-width="2" stroke-linecap="round" stroke-linejoin="round"/>
</svg>
